# xmcd
# 
# Track frame offsets:
#     150
#     20310
#     34010
#     50752
#     74900
#     96742
#     128250
#     150000
#     166902
#     189212
# 
# Disc length: 2972
# 
# Revision: 6
# Processed by: cddbd v1.5.2PL0 Copyright (c) Steve Scherf et al.
# Submitted via: fre:ac v1.0.31
# 
DISCID=790b9a0a
DTITLE=Various Artist - 夜的精靈 Moonlight Festival
DYEAR=2001
DGENRE=New Age
TTITLE0=Various Artist - 向晚 Night Falling
TTITLE1=Various Artist - 夜的精靈 Moonlight Festival
TTITLE2=Various Artist - 蛙蛙快樂頌 Ode of Joy
TTITLE3=Various Artist - 鄉間晚風 Country Wind
TTITLE4=Various Artist - 對牛彈琴 Clumsy Beats
TTITLE5=Various Artist - 星夜 Silver River
TTITLE6=Various Artist - 小夜曲 Starlight Serenade
TTITLE7=Various Artist - 秘密部落 Secret Tribe
TTITLE8=Various Artist - 銀色山崗 Gentle Slope
TTITLE9=Various Artist - 夢 Dreams of Night Spirits
EXTD=YEAR: 2001
EXTT0=
EXTT1=
EXTT2=
EXTT3=
EXTT4=
EXTT5=
EXTT6=
EXTT7=
EXTT8=
EXTT9=
PLAYORDER=
